<svg xmlns="http://www.w3.org/2000/svg" width="66" height="57" viewBox="0 0 66 57" fill="none">
<path fill-rule="evenodd" clip-rule="evenodd" d="M58.6298 7.4346C52.8029 1.52164 43.3557 1.52164 37.5288 7.4346L32.7288 12.3056L28.4712 7.98508C22.6443 2.07212 13.197 2.07213 7.37016 7.98509C1.54328 13.898 1.54328 23.4849 7.37017 29.3978L29.1819 51.5317C31.1201 53.4986 34.2626 53.4986 36.2009 51.5317L42.9273 44.706C43.2469 44.4319 43.5579 44.1419 43.8591 43.8362L58.6298 28.8473C64.4567 22.9344 64.4567 13.3476 58.6298 7.4346Z" fill="#ac3c3c"/>
<path d="M37.5288 7.4346L39.6656 9.54031L39.6656 9.54031L37.5288 7.4346ZM58.6298 7.4346L60.7666 5.32888L60.7666 5.32888L58.6298 7.4346ZM32.7288 12.3056L30.5919 14.4113L32.7288 16.5797L34.8656 14.4113L32.7288 12.3056ZM28.4712 7.98508L26.3344 10.0908L26.3344 10.0908L28.4712 7.98508ZM7.37016 7.98509L9.50698 10.0908L9.50698 10.0908L7.37016 7.98509ZM7.37017 29.3978L5.23335 31.5035L7.37017 29.3978ZM29.1819 51.5317L27.045 53.6374L27.045 53.6374L29.1819 51.5317ZM36.2009 51.5317L34.0641 49.426L34.0641 49.426L36.2009 51.5317ZM42.9273 44.706L40.9743 42.4287L40.8788 42.5106L40.7904 42.6003L42.9273 44.706ZM43.8591 43.8362L41.7223 41.7305L41.7223 41.7305L43.8591 43.8362ZM58.6298 28.8473L56.493 26.7416L58.6298 28.8473ZM39.6656 9.54031C44.3175 4.81974 51.8412 4.81973 56.493 9.54031L60.7666 5.32888C53.7647 -1.77646 42.3939 -1.77646 35.392 5.32889L39.6656 9.54031ZM34.8656 14.4113L39.6656 9.54031L35.392 5.32889L30.5919 10.1999L34.8656 14.4113ZM26.3344 10.0908L30.5919 14.4113L34.8656 10.1999L30.608 5.87937L26.3344 10.0908ZM9.50698 10.0908C14.1588 5.37022 21.6825 5.37022 26.3344 10.0908L30.608 5.87937C23.6061 -1.22597 12.2353 -1.22597 5.23334 5.87937L9.50698 10.0908ZM9.50698 27.2921C4.83101 22.5471 4.83101 14.8358 9.50698 10.0908L5.23334 5.87937C-1.74445 12.9602 -1.74445 24.4226 5.23335 31.5035L9.50698 27.2921ZM31.3187 49.426L9.50698 27.2921L5.23335 31.5035L27.045 53.6374L31.3187 49.426ZM34.0641 49.426C33.3008 50.2005 32.0819 50.2005 31.3187 49.426L27.045 53.6374C30.1583 56.7967 35.2244 56.7967 38.3377 53.6374L34.0641 49.426ZM40.7904 42.6003L34.0641 49.426L38.3377 53.6374L45.0641 46.8117L40.7904 42.6003ZM41.7223 41.7305C41.4799 41.9765 41.2303 42.2092 40.9743 42.4287L44.8802 46.9833C45.2635 46.6545 45.6358 46.3074 45.996 45.9419L41.7223 41.7305ZM56.493 26.7416L41.7223 41.7305L45.9959 45.9419L60.7666 30.953L56.493 26.7416ZM56.493 9.54031C61.169 14.2854 61.169 21.9966 56.493 26.7416L60.7666 30.953C67.7444 23.8722 67.7444 12.4098 60.7666 5.32888L56.493 9.54031Z" fill="#ac3c3c"/>
</svg>