<svg width="66" height="57" viewBox="0 0 66 57" fill="none" xmlns="http://www.w3.org/2000/svg">
<path d="M37.5288 7.43472L39.6656 9.54043L39.6656 9.54043L37.5288 7.43472ZM58.6298 7.43472L60.7666 5.32901L60.7666 5.32901L58.6298 7.43472ZM32.7288 12.3057L30.5919 14.4114L32.7288 16.5798L34.8656 14.4114L32.7288 12.3057ZM28.4712 7.98521L30.608 5.8795L30.608 5.8795L28.4712 7.98521ZM7.37016 7.98521L9.50698 10.0909L9.50698 10.0909L7.37016 7.98521ZM7.37017 29.3979L9.50698 27.2922L9.50698 27.2922L7.37017 29.3979ZM29.1819 51.5318L27.045 53.6375L27.045 53.6375L29.1819 51.5318ZM36.2009 51.5318L34.0641 49.4261L34.0641 49.4261L36.2009 51.5318ZM42.9272 44.7061L40.9743 42.4288L40.8788 42.5108L40.7904 42.6004L42.9272 44.7061ZM43.8591 43.8363L45.9959 45.9421L45.9959 45.942L43.8591 43.8363ZM58.6298 28.8474L60.7666 30.9531L60.7666 30.9531L58.6298 28.8474ZM39.6656 9.54043C44.3175 4.81986 51.8412 4.81985 56.493 9.54043L60.7666 5.32901C53.7647 -1.77634 42.3939 -1.77633 35.392 5.32901L39.6656 9.54043ZM34.8656 14.4114L39.6656 9.54043L35.392 5.32901L30.5919 10.2L34.8656 14.4114ZM26.3344 10.0909L30.5919 14.4114L34.8656 10.2L30.608 5.8795L26.3344 10.0909ZM9.50698 10.0909C14.1588 5.37034 21.6825 5.37034 26.3344 10.0909L30.608 5.8795C23.6061 -1.22585 12.2353 -1.22585 5.23334 5.8795L9.50698 10.0909ZM9.50698 27.2922C4.83101 22.5472 4.83101 14.836 9.50698 10.0909L5.23334 5.8795C-1.74445 12.9604 -1.74445 24.4228 5.23335 31.5036L9.50698 27.2922ZM31.3187 49.4261L9.50698 27.2922L5.23335 31.5036L27.045 53.6375L31.3187 49.4261ZM34.0641 49.4261C33.3008 50.2006 32.0819 50.2006 31.3187 49.4261L27.045 53.6375C30.1583 56.7968 35.2244 56.7968 38.3377 53.6375L34.0641 49.4261ZM40.7904 42.6004L34.0641 49.4261L38.3377 53.6375L45.064 46.8118L40.7904 42.6004ZM41.7223 41.7306C41.4799 41.9766 41.2303 42.2093 40.9743 42.4288L44.8802 46.9834C45.2635 46.6547 45.6358 46.3075 45.9959 45.9421L41.7223 41.7306ZM56.493 26.7417L41.7223 41.7306L45.9959 45.942L60.7666 30.9531L56.493 26.7417ZM56.493 9.54043C61.169 14.2855 61.169 21.9967 56.493 26.7417L60.7666 30.9531C67.7444 23.8723 67.7444 12.4099 60.7666 5.32901L56.493 9.54043Z" fill="#3C60AC"/>
</svg>
