<svg width="60" height="60" viewBox="0 0 60 60" fill="none" xmlns="http://www.w3.org/2000/svg">
<path d="M29.8414 17.672C22.434 17.672 16.2964 23.7037 16.2964 31.2169C16.2964 38.7302 22.3281 44.7619 29.8414 44.7619C37.3546 44.7619 43.3863 38.6243 43.3863 31.2169C43.3863 23.8095 37.2488 17.672 29.8414 17.672ZM29.8414 39.8942C25.0795 39.8942 21.1641 35.9788 21.1641 31.2169C21.1641 26.455 25.0795 22.5397 29.8414 22.5397C34.6033 22.5397 38.5186 26.455 38.5186 31.2169C38.5186 35.9788 34.6033 39.8942 29.8414 39.8942Z" fill="white"/>
<path d="M43.9155 20.4233C45.6103 20.4233 46.9842 19.0493 46.9842 17.3545C46.9842 15.6597 45.6103 14.2857 43.9155 14.2857C42.2206 14.2857 40.8467 15.6597 40.8467 17.3545C40.8467 19.0493 42.2206 20.4233 43.9155 20.4233Z" fill="white"/>
<path d="M51.8519 9.41799C49.1005 6.56085 45.1852 5.07936 40.7408 5.07936H18.9418C9.73547 5.07936 3.5979 11.2169 3.5979 20.4233V42.1164C3.5979 46.6667 5.07938 50.582 8.04234 53.4392C10.8995 56.1905 14.709 57.5661 19.0476 57.5661H40.6349C45.1852 57.5661 48.9947 56.0847 51.746 53.4392C54.6032 50.6878 56.0847 46.7725 56.0847 42.2222V20.4233C56.0847 15.9788 54.6032 12.1693 51.8519 9.41799ZM51.4286 42.2222C51.4286 45.5026 50.2646 48.1482 48.3598 49.9471C46.455 51.746 43.8095 52.6984 40.6349 52.6984H19.0476C15.873 52.6984 13.2275 51.746 11.3228 49.9471C9.41801 48.0423 8.46563 45.3968 8.46563 42.1164V20.4233C8.46563 17.2487 9.41801 14.6032 11.3228 12.6984C13.1217 10.8995 15.873 9.94709 19.0476 9.94709H40.8466C44.0212 9.94709 46.6667 10.8995 48.5714 12.8042C50.3704 14.709 51.4286 17.3545 51.4286 20.4233V42.2222Z" fill="white"/>
</svg>
