<svg width="60" height="60" viewBox="0 0 60 60" fill="none" xmlns="http://www.w3.org/2000/svg">
<path d="M6.01477 21.7793H16.5629V53.5221H6.01477V21.7793ZM11.3595 6.47789C7.74926 6.47789 5.39062 8.84801 5.39062 11.9589C5.39062 15.0057 7.68023 17.4448 11.2214 17.4448H11.2887C14.9679 17.4448 17.2591 15.0056 17.2591 11.9589C17.1901 8.84801 14.968 6.47789 11.3595 6.47789ZM42.4616 21.0336C36.8625 21.0336 34.3541 24.1133 32.9548 26.2731V21.7793H22.4034C22.5431 24.7571 22.4034 53.5221 22.4034 53.5221H32.9548V35.7947C32.9548 34.8452 33.0238 33.8993 33.3014 33.2191C34.0654 31.3237 35.8014 29.361 38.7134 29.361C42.5339 29.361 44.0597 32.2732 44.0597 36.5385V53.522H54.6094V35.3201C54.6094 25.5702 49.406 21.0336 42.4616 21.0336Z" fill="white"/>
</svg>
