<svg width="60" height="60" viewBox="0 0 60 60" fill="none" xmlns="http://www.w3.org/2000/svg">
<path d="M55.9193 15.9438C54.0027 16.7957 51.94 17.3704 49.7757 17.6276C51.9855 16.3047 53.6799 14.2092 54.4789 11.7094C52.412 12.936 50.1239 13.826 47.6865 14.3065C45.736 12.228 42.9558 10.9283 39.8792 10.9283C33.9727 10.9283 29.1837 15.7173 29.1837 21.6249C29.1837 22.462 29.2779 23.278 29.461 24.0622C20.571 23.6156 12.6886 19.3579 7.41279 12.8862C6.49204 14.4653 5.965 16.3025 5.965 18.2647C5.965 21.9752 7.85306 25.2497 10.7233 27.1674C8.97066 27.1113 7.32072 26.6297 5.87821 25.8286C5.87715 25.873 5.87715 25.9185 5.87715 25.9641C5.87715 31.1456 9.56438 35.4679 14.4581 36.4521C13.5606 36.6955 12.6156 36.8268 11.6398 36.8268C10.9497 36.8268 10.2798 36.7601 9.62682 36.6342C10.9889 40.8834 14.9386 43.9769 19.6185 44.0626C15.9578 46.9317 11.3466 48.642 6.33435 48.642C5.47181 48.642 4.61986 48.5912 3.78271 48.4917C8.51769 51.5281 14.1395 53.2976 20.1794 53.2976C39.8549 53.2976 50.6128 36.9993 50.6128 22.8642C50.6128 22.4006 50.6033 21.9382 50.5832 21.4788C52.6723 19.9739 54.4863 18.089 55.9193 15.9438Z" fill="white"/>
</svg>
